Coordinates
version=1
nRows=5
nColumns=42
inDegrees=yes

Units are S.I. units (second, meters, Newtons, ...)
If the header above contains a line with 'inDegrees', this indicates whether rotational values are in degrees (yes) or radians (no).

endheader
time	pelvis_tilt	pelvis_list	pelvis_rotation	pelvis_tx	pelvis_ty	pelvis_tz	hip_flexion_r	hip_adduction_r	hip_rotation_r	knee_angle_r	knee_adduction_r	knee_angle_r_beta	ankle_angle_r	subtalar_angle_r	mtp_angle_r	hip_flexion_l	hip_adduction_l	hip_rotation_l	knee_angle_l	knee_adduction_l	knee_angle_l_beta	ankle_angle_l	subtalar_angle_l	mtp_angle_l	lumbar_extension	lumbar_bending	lumbar_rotation	arm_flex_r	arm_add_r	arm_rot_r	elbow_flex_r	pro_sup_r	wrist_flex_r	wrist_dev_r	arm_flex_l	arm_add_l	arm_rot_l	elbow_flex_l	pro_sup_l	wrist_flex_l	wrist_dev_l
      3.00000000	      4.86135462	     -0.20699653	      3.63654502	     -0.19296029	      0.86960974	     -0.21608026	      7.83263014	     -6.33725861	     -0.21519167	     67.30449334	      3.87008630	      1.17468501	      1.66581640	      0.38911156	     -7.51546472	     14.94373727	      3.02768066	     -9.00113036	     36.73072330	     -5.02069286	      0.64107206	     18.23821834	     19.77627703	     -7.51546472	    -25.86148718	      4.79270929	     -3.18693945	      2.30989281	    -14.84494350	    -11.55860138	     53.31393315	     90.00000001	      0.00000000	      0.00000000	     16.30344565	    -10.77918590	     27.73504363	     48.64759308	     90.00000001	      0.00000000	      0.00000000
      3.01000000	      4.04149668	      0.03867122	      3.36376924	     -0.19051720	      0.86712775	     -0.21679533	     10.48347238	     -6.63092658	      1.11651466	     69.56426396	      4.36989059	      1.21412545	      2.95713766	     -1.00209987	     -7.51479726	     16.05628742	      3.28898979	     -9.79990554	     37.52220548	     -5.31499456	      0.65488603	     19.05119219	     20.47824017	     -7.51479726	    -25.13308841	      4.36441562	     -3.19779049	      2.27186146	    -14.60654407	    -12.38088804	     52.67508834	     90.00000001	      0.00000000	      0.00000000	     16.41129796	    -10.87915365	     27.68321609	     48.33429673	     90.00000001	      0.00000000	      0.00000000
      3.02000000	      4.23186174	      0.06122963	      3.28158604	     -0.18734168	      0.86670964	     -0.21758445	     11.57284813	     -6.48525367	      1.26060035	     70.77207581	      3.96290887	      1.23520574	      3.76885057	     -1.35530476	     -7.51453238	     15.71727910	      3.24154104	     -9.88312249	     37.82316352	     -5.17241224	      0.66013874	     19.45601201	     20.50350521	     -7.51453238	    -25.49437971	      4.30113430	     -3.26723067	      2.19213134	    -14.61632507	    -12.52787737	     52.41821244	     90.00000001	      0.00000000	      0.00000000	     16.57136281	    -10.99665989	     27.56205970	     48.19161151	     90.00000001	      0.00000000	      0.00000000
      3.03000000	      3.89483343	      0.08230353	      3.25454843	     -0.18456788	      0.86530981	     -0.21848224	     13.37929647	     -6.45117111	      1.44812651	     72.05411303	      3.74846060	      1.25758151	      4.80933661	     -1.45220033	     -7.51391300	     16.15208971	      3.31496134	    -10.19549331	     38.35540481	     -5.39430544	      0.66942810	     19.86150189	     20.81371358	     -7.51391300	    -25.25835811	      4.24904173	     -3.39253731	      2.12603052	    -14.49390928	    -13.08169122	     51.98932962	     90.00000001	      0.00000000	      0.00000000	     16.65961429	    -11.07892272	     27.43804329	     47.99748011	     90.00000001	      0.00000000	      0.00000000
      3.04000000	      4.15597510	      0.00076419	      3.28429801	     -0.18154007	      0.86520477	     -0.21939131	     14.29268453	     -6.27507282	      1.36088166	     72.70242939	      3.49392803	      1.26889677	      5.17205332	     -1.37667185	     -7.51373788	     15.72170792	      3.26858538	    -10.08990649	     38.55933981	     -5.39235815	      0.67298744	     19.90951467	     20.70521867	     -7.51373788	    -25.71488808	      4.38317150	     -3.52360221	      2.05351803	    -14.52136601	    -13.11301331	     51.89395351	     90.00000001	      0.00000000	      0.00000000	     16.79050244	    -11.18351608	     27.31968038	     47.98193990	     90.00000001	      0.00000000	      0.00000000
